# xmcd CD database file
#
# Track frame offsets:
#	150
#	13517
#	25717
#	36972
#	50939
#	63807
#	75793
#	87698
#	98970
#	110443
#	121856
#	134518
#	146128
#	158508
#
# Disc length: 2273 seconds
#
# Revision: 0
# Processed by: cddbd v1.5.1PL0 Copyright (c) Steve Scherf et al.
# Submitted via: CDex 1.51
#
DISCID=b308df0e
DTITLE=CELIA CRUZ-SABOR LATINO - LA SALSA
DYEAR=1996
DGENRE=Salsa
TTITLE0=YERBERO MODERNO
TTITLE1=TUYA Y MAS QUE TUYA
TTITLE2=TAMBORILERO
TTITLE3=PARA TU ALTAR
TTITLE4=PEPE ANTONIO
TTITLE5=VAMOS A GUARACHAR
TTITLE6=EL LLEVA Y TRAE
TTITLE7=BAJO LA LUNA
TTITLE8=DILE QUE POR MI NO TEMA
TTITLE9=LA CUMBANCHERA DE BELEN
TTITLE10=POCO A POCO
TTITLE11=CONTESTACION DEL MARINERO
TTITLE12=JUANCITO TRUCUPEY
TTITLE13=BURUNDANGA
EXTD=YEAR: 1996
EXTT0=
EXTT1=
EXTT2=
EXTT3=
EXTT4=
EXTT5=
EXTT6=
EXTT7=
EXTT8=
EXTT9=
EXTT10=
EXTT11=
EXTT12=
EXTT13=
PLAYORDER=
